<svg width="169" height="27" viewBox="0 0 169 27" fill="none" xmlns="http://www.w3.org/2000/svg">
<rect x="0.5" y="0.5" width="22" height="23" fill="#84A6A8" stroke="#1B2858"/>
<rect x="3.5" y="3.5" width="22" height="23" fill="#B0B9D1" stroke="#1B2858"/>
<rect x="8.5" y="8.5" width="12" height="13" fill="#589195" stroke="#1B2858"/>
<path d="M47.31 10.51C47.31 10.55 47.25 10.58 47.13 10.6C47.03 10.62 46.97 10.6 46.95 10.54C46.63 9.38 46.09 8.52 45.33 7.96C44.57 7.4 43.57 7.12 42.33 7.12H41.43C40.83 7.12 40.39 7.25 40.11 7.51C39.83 7.77 39.69 8.17 39.69 8.71V15.19H41.85C43.01 15.19 43.89 14.99 44.49 14.59C45.11 14.17 45.42 13.6 45.42 12.88C45.42 12.84 45.48 12.82 45.6 12.82C45.72 12.82 45.78 12.84 45.78 12.88L45.75 15.61C45.75 16.25 45.76 16.73 45.78 17.05L45.81 18.64C45.81 18.7 45.75 18.73 45.63 18.73C45.51 18.73 45.45 18.7 45.45 18.64C45.45 17.84 45.13 17.21 44.49 16.75C43.87 16.27 42.98 16.03 41.82 16.03H39.69V22.45C39.69 23.07 39.77 23.53 39.93 23.83C40.09 24.13 40.39 24.34 40.83 24.46C41.27 24.58 41.96 24.64 42.9 24.64C42.94 24.64 42.96 24.7 42.96 24.82C42.96 24.94 42.94 25 42.9 25C42.08 25 41.44 24.99 40.98 24.97L37.92 24.94L35.67 24.97C35.27 24.99 34.72 25 34.02 25C33.96 25 33.93 24.94 33.93 24.82C33.93 24.7 33.96 24.64 34.02 24.64C34.72 24.64 35.23 24.59 35.55 24.49C35.87 24.39 36.08 24.2 36.18 23.92C36.3 23.62 36.36 23.17 36.36 22.57V8.68C36.36 8.08 36.31 7.64 36.21 7.36C36.11 7.08 35.91 6.89 35.61 6.79C35.31 6.67 34.85 6.61 34.23 6.61C34.17 6.61 34.14 6.55 34.14 6.43C34.14 6.31 34.17 6.25 34.23 6.25H46.95C47.15 6.25 47.25 6.34 47.25 6.52L47.31 10.51ZM60.7165 23.38C60.7965 23.38 60.8465 23.43 60.8665 23.53C60.9065 23.61 60.8865 23.67 60.8065 23.71L57.7165 25.18C57.6365 25.22 57.5365 25.24 57.4165 25.24C57.1165 25.24 56.8165 25.09 56.5165 24.79C56.2365 24.49 56.0365 24.08 55.9165 23.56L54.5365 24.31C54.0165 24.57 53.4765 24.79 52.9165 24.97C52.3565 25.13 51.8565 25.21 51.4165 25.21C50.7765 25.21 50.2665 25.05 49.8865 24.73C49.5265 24.39 49.3465 23.91 49.3465 23.29C49.3465 22.83 49.4565 22.46 49.6765 22.18C49.9165 21.9 50.2465 21.67 50.6665 21.49C51.1065 21.29 51.7965 21.03 52.7365 20.71L55.7965 19.72V17.35C55.7965 16.15 55.6765 15.27 55.4365 14.71C55.1965 14.13 54.8065 13.84 54.2665 13.84C53.7865 13.84 53.4065 14.02 53.1265 14.38C52.8465 14.74 52.6765 15.33 52.6165 16.15C52.4965 17.27 51.9065 17.83 50.8465 17.83C49.9065 17.83 49.4365 17.42 49.4365 16.6C49.4365 16.06 49.7765 15.52 50.4565 14.98C51.1365 14.44 51.9565 14 52.9165 13.66C53.8765 13.32 54.7165 13.15 55.4365 13.15C56.3765 13.15 57.1365 13.43 57.7165 13.99C58.3165 14.55 58.6165 15.37 58.6165 16.45V21.76C58.6165 22.34 58.7165 22.79 58.9165 23.11C59.1365 23.43 59.4365 23.59 59.8165 23.59C60.0965 23.59 60.3865 23.52 60.6865 23.38H60.7165ZM55.8265 23.08C55.8065 22.94 55.7965 22.73 55.7965 22.45V20.23L54.1465 20.83C53.6065 21.03 53.2165 21.25 52.9765 21.49C52.7565 21.73 52.6465 22.02 52.6465 22.36C52.6465 22.78 52.7665 23.11 53.0065 23.35C53.2465 23.59 53.5465 23.71 53.9065 23.71C54.3465 23.71 54.8565 23.57 55.4365 23.29L55.8265 23.08ZM64.3134 14.86C64.3134 15.44 64.5134 15.94 64.9134 16.36C65.3334 16.78 65.9334 17.22 66.7134 17.68C67.4734 18.12 68.0334 18.47 68.3934 18.73C68.7734 18.97 69.1134 19.32 69.4134 19.78C69.7134 20.22 69.8634 20.76 69.8634 21.4C69.8634 22.08 69.6934 22.72 69.3534 23.32C69.0134 23.92 68.5034 24.41 67.8234 24.79C67.1434 25.15 66.3334 25.33 65.3934 25.33C64.2934 25.33 63.2534 25.06 62.2734 24.52C62.1534 24.4 62.0934 24.28 62.0934 24.16L62.0334 21.19C62.0334 21.13 62.0834 21.1 62.1834 21.1C62.3034 21.08 62.3734 21.09 62.3934 21.13C62.7134 22.13 63.2434 22.98 63.9834 23.68C64.7234 24.38 65.4734 24.73 66.2334 24.73C66.6534 24.73 66.9834 24.6 67.2234 24.34C67.4834 24.08 67.6134 23.7 67.6134 23.2C67.6134 22.46 67.4034 21.88 66.9834 21.46C66.5634 21.02 65.9434 20.57 65.1234 20.11C64.4234 19.73 63.8934 19.42 63.5334 19.18C63.1734 18.94 62.8534 18.6 62.5734 18.16C62.2934 17.72 62.1534 17.18 62.1534 16.54C62.1534 15.36 62.5734 14.5 63.4134 13.96C64.2534 13.4 65.2834 13.12 66.5034 13.12C66.9634 13.12 67.3734 13.15 67.7334 13.21C68.1134 13.27 68.5334 13.39 68.9934 13.57C69.1734 13.63 69.2634 13.74 69.2634 13.9C69.2634 14.4 69.2534 14.79 69.2334 15.07L69.2034 16.57C69.2034 16.63 69.1434 16.66 69.0234 16.66C68.9034 16.66 68.8434 16.63 68.8434 16.57C68.8434 16.19 68.6834 15.78 68.3634 15.34C68.0434 14.88 67.6234 14.49 67.1034 14.17C66.6034 13.85 66.0834 13.69 65.5434 13.69C64.7234 13.69 64.3134 14.08 64.3134 14.86ZM85.6109 24.64C85.6909 24.64 85.7309 24.7 85.7309 24.82C85.7309 24.94 85.6909 25 85.6109 25C85.0909 25 84.6709 24.99 84.3509 24.97L82.6109 24.94L80.8109 24.97C80.5109 24.99 80.1009 25 79.5809 25C79.5409 25 79.5209 24.94 79.5209 24.82C79.5209 24.7 79.5409 24.64 79.5809 24.64C80.2009 24.64 80.6209 24.5 80.8409 24.22C81.0809 23.92 81.2009 23.37 81.2009 22.57V18.25C81.2009 17.17 81.0009 16.37 80.6009 15.85C80.2009 15.33 79.5809 15.07 78.7409 15.07C78.2609 15.07 77.7609 15.17 77.2409 15.37C76.7409 15.57 76.3009 15.84 75.9209 16.18V22.57C75.9209 23.37 76.0309 23.92 76.2509 24.22C76.4909 24.5 76.9209 24.64 77.5409 24.64C77.6209 24.64 77.6609 24.7 77.6609 24.82C77.6609 24.94 77.6209 25 77.5409 25C77.0209 25 76.6009 24.99 76.2809 24.97L74.5409 24.94L72.7409 24.97C72.4409 24.99 72.0309 25 71.5109 25C71.4709 25 71.4509 24.94 71.4509 24.82C71.4509 24.7 71.4709 24.64 71.5109 24.64C72.1309 24.64 72.5509 24.5 72.7709 24.22C73.0109 23.92 73.1309 23.37 73.1309 22.57V7.33C73.1309 6.63 73.0609 6.13 72.9209 5.83C72.8009 5.53 72.5809 5.38 72.2609 5.38C71.9809 5.38 71.6009 5.49 71.1209 5.71H71.0909C71.0309 5.71 70.9709 5.66 70.9109 5.56C70.8709 5.44 70.8709 5.37 70.9109 5.35L75.2909 3.28L75.4409 3.25C75.5409 3.25 75.6409 3.3 75.7409 3.4C75.8609 3.48 75.9209 3.56 75.9209 3.64V15.52C77.3409 13.88 78.8609 13.06 80.4809 13.06C81.5609 13.06 82.4109 13.41 83.0309 14.11C83.6709 14.79 83.9909 15.69 83.9909 16.81V22.57C83.9909 23.37 84.1009 23.92 84.3209 24.22C84.5609 24.5 84.9909 24.64 85.6109 24.64ZM87.3145 25C87.2545 25 87.2245 24.94 87.2245 24.82C87.2245 24.7 87.2545 24.64 87.3145 24.64C87.9345 24.64 88.3545 24.5 88.5745 24.22C88.7945 23.92 88.9045 23.37 88.9045 22.57V17.2C88.9045 16.52 88.8345 16.03 88.6945 15.73C88.5545 15.43 88.3245 15.28 88.0045 15.28C87.7445 15.28 87.3745 15.39 86.8945 15.61H86.8645C86.7845 15.61 86.7245 15.56 86.6845 15.46C86.6445 15.34 86.6545 15.27 86.7145 15.25L91.2445 13.15L91.3345 13.12C91.4345 13.12 91.5345 13.17 91.6345 13.27C91.7345 13.37 91.7845 13.46 91.7845 13.54V14.2C91.7445 15 91.7245 15.98 91.7245 17.14V22.57C91.7245 23.37 91.8345 23.92 92.0545 24.22C92.2945 24.5 92.7245 24.64 93.3445 24.64C93.4045 24.64 93.4345 24.7 93.4345 24.82C93.4345 24.94 93.4045 25 93.3445 25C92.8245 25 92.4145 24.99 92.1145 24.97L90.3145 24.94L88.5445 24.97C88.2445 24.99 87.8345 25 87.3145 25ZM90.1945 10.15C89.6145 10.15 89.1645 9.99 88.8445 9.67C88.5245 9.35 88.3645 8.9 88.3645 8.32C88.3645 7.8 88.5245 7.39 88.8445 7.09C89.1845 6.77 89.6345 6.61 90.1945 6.61C90.7545 6.61 91.1845 6.76 91.4845 7.06C91.7845 7.36 91.9345 7.78 91.9345 8.32C91.9345 8.9 91.7845 9.35 91.4845 9.67C91.1845 9.99 90.7545 10.15 90.1945 10.15ZM101.135 25.39C99.8954 25.39 98.8054 25.11 97.8654 24.55C96.9454 23.97 96.2354 23.2 95.7354 22.24C95.2354 21.26 94.9854 20.2 94.9854 19.06C94.9854 17.76 95.3154 16.66 95.9754 15.76C96.6354 14.84 97.4754 14.16 98.4954 13.72C99.5154 13.26 100.565 13.03 101.645 13.03C102.885 13.03 103.965 13.32 104.885 13.9C105.805 14.48 106.505 15.25 106.985 16.21C107.485 17.15 107.735 18.16 107.735 19.24C107.735 20.44 107.435 21.51 106.835 22.45C106.235 23.37 105.425 24.09 104.405 24.61C103.405 25.13 102.315 25.39 101.135 25.39ZM102.035 24.76C102.815 24.76 103.405 24.38 103.805 23.62C104.225 22.84 104.435 21.73 104.435 20.29C104.435 18.89 104.255 17.69 103.895 16.69C103.535 15.69 103.065 14.94 102.485 14.44C101.905 13.92 101.285 13.66 100.625 13.66C99.0254 13.66 98.2254 15.09 98.2254 17.95C98.2254 19.29 98.3954 20.48 98.7354 21.52C99.0754 22.54 99.5354 23.34 100.115 23.92C100.695 24.48 101.335 24.76 102.035 24.76ZM137.694 24.64C137.754 24.64 137.784 24.7 137.784 24.82C137.784 24.94 137.754 25 137.694 25C136.994 25 136.434 24.99 136.014 24.97L133.704 24.94L131.004 24.97C130.644 24.99 130.154 25 129.534 25C129.474 25 129.444 24.94 129.444 24.82C129.444 24.7 129.474 24.64 129.534 24.64C130.274 24.64 130.814 24.59 131.154 24.49C131.494 24.39 131.724 24.2 131.844 23.92C131.964 23.64 132.024 23.19 132.024 22.57V15.67H122.334V22.57C122.334 23.17 122.394 23.62 122.514 23.92C122.634 24.2 122.864 24.39 123.204 24.49C123.544 24.59 124.084 24.64 124.824 24.64C124.864 24.64 124.884 24.7 124.884 24.82C124.884 24.94 124.864 25 124.824 25C124.124 25 123.564 24.99 123.144 24.97L120.534 24.94L118.284 24.97C117.884 24.99 117.334 25 116.634 25C116.594 25 116.574 24.94 116.574 24.82C116.574 24.7 116.594 24.64 116.634 24.64C117.334 24.64 117.844 24.59 118.164 24.49C118.484 24.39 118.704 24.2 118.824 23.92C118.944 23.62 119.004 23.17 119.004 22.57V8.68C119.004 8.08 118.944 7.64 118.824 7.36C118.704 7.08 118.484 6.89 118.164 6.79C117.864 6.67 117.374 6.61 116.694 6.61C116.634 6.61 116.604 6.55 116.604 6.43C116.604 6.31 116.634 6.25 116.694 6.25L118.314 6.28C119.234 6.32 119.974 6.34 120.534 6.34C121.294 6.34 122.174 6.32 123.174 6.28L124.824 6.25C124.864 6.25 124.884 6.31 124.884 6.43C124.884 6.55 124.864 6.61 124.824 6.61C124.104 6.61 123.574 6.67 123.234 6.79C122.894 6.91 122.654 7.12 122.514 7.42C122.394 7.7 122.334 8.14 122.334 8.74V14.83H132.024V8.74C132.024 8.14 131.964 7.7 131.844 7.42C131.724 7.12 131.494 6.91 131.154 6.79C130.814 6.67 130.274 6.61 129.534 6.61C129.474 6.61 129.444 6.55 129.444 6.43C129.444 6.31 129.474 6.25 129.534 6.25L131.004 6.28C132.004 6.32 132.904 6.34 133.704 6.34C134.244 6.34 135.014 6.32 136.014 6.28L137.694 6.25C137.754 6.25 137.784 6.31 137.784 6.43C137.784 6.55 137.754 6.61 137.694 6.61C137.014 6.61 136.504 6.67 136.164 6.79C135.844 6.89 135.624 7.08 135.504 7.36C135.404 7.64 135.354 8.08 135.354 8.68V22.57C135.354 23.17 135.404 23.62 135.504 23.92C135.624 24.2 135.844 24.39 136.164 24.49C136.484 24.59 136.994 24.64 137.694 24.64ZM153.615 23.05C153.675 23.05 153.725 23.1 153.765 23.2C153.825 23.3 153.825 23.36 153.765 23.38L149.625 25.39C149.585 25.41 149.535 25.42 149.475 25.42C149.275 25.42 149.095 25.21 148.935 24.79C148.795 24.35 148.715 23.76 148.695 23.02C147.375 24.58 145.945 25.36 144.405 25.36C143.305 25.36 142.435 25.02 141.795 24.34C141.175 23.64 140.865 22.73 140.865 21.61V17.2C140.865 15.9 140.555 15.25 139.935 15.25C139.715 15.25 139.465 15.32 139.185 15.46H139.155C139.075 15.46 139.015 15.41 138.975 15.31C138.935 15.19 138.945 15.12 139.005 15.1L143.025 13.18L143.175 13.15C143.275 13.15 143.375 13.2 143.475 13.3C143.595 13.38 143.655 13.46 143.655 13.54V20.17C143.655 22.33 144.485 23.41 146.145 23.41C146.585 23.41 147.025 23.32 147.465 23.14C147.925 22.94 148.335 22.67 148.695 22.33V17.2C148.695 15.9 148.385 15.25 147.765 15.25C147.545 15.25 147.285 15.32 146.985 15.46H146.955C146.895 15.46 146.845 15.41 146.805 15.31C146.765 15.19 146.775 15.12 146.835 15.1L150.855 13.18C150.895 13.16 150.945 13.15 151.005 13.15C151.105 13.15 151.205 13.2 151.305 13.3C151.425 13.38 151.485 13.46 151.485 13.54V21.52C151.485 22.2 151.545 22.68 151.665 22.96C151.805 23.24 152.025 23.38 152.325 23.38C152.605 23.38 153.015 23.27 153.555 23.05H153.615ZM163.331 13.03C164.231 13.03 165.061 13.24 165.821 13.66C166.581 14.08 167.181 14.71 167.621 15.55C168.081 16.39 168.311 17.41 168.311 18.61C168.311 20.05 168.001 21.28 167.381 22.3C166.781 23.32 165.981 24.09 164.981 24.61C164.001 25.13 162.951 25.39 161.831 25.39C161.071 25.39 160.321 25.27 159.581 25.03C158.861 24.79 158.201 24.44 157.601 23.98L154.871 25.21H154.811C154.731 25.21 154.681 25.17 154.661 25.09C154.641 25.01 154.671 24.96 154.751 24.94C155.231 24.66 155.591 24.28 155.831 23.8C156.091 23.3 156.221 22.67 156.221 21.91V7.33C156.221 6.63 156.151 6.13 156.011 5.83C155.891 5.53 155.661 5.38 155.321 5.38C155.061 5.38 154.691 5.49 154.211 5.71H154.181C154.101 5.71 154.041 5.66 154.001 5.56C153.961 5.44 153.961 5.37 154.001 5.35L158.381 3.28L158.531 3.25C158.631 3.25 158.731 3.3 158.831 3.4C158.951 3.48 159.011 3.56 159.011 3.64V15.04C159.671 14.42 160.341 13.93 161.021 13.57C161.701 13.21 162.471 13.03 163.331 13.03ZM162.551 24.79C163.411 24.79 164.071 24.35 164.531 23.47C164.991 22.59 165.221 21.36 165.221 19.78C165.221 18.04 164.931 16.75 164.351 15.91C163.771 15.05 162.961 14.62 161.921 14.62C160.981 14.62 160.011 14.96 159.011 15.64V20.05C159.011 21.15 159.201 22.06 159.581 22.78C159.961 23.48 160.421 23.99 160.961 24.31C161.501 24.63 162.031 24.79 162.551 24.79Z" fill="#589195"/>
</svg>
